<?xml version="1.0" standalone="no"?>
<!DOCTYPE svg PUBLIC "-//W3C//DTD SVG 20010904//EN"
 "http://www.w3.org/TR/2001/REC-SVG-20010904/DTD/svg10.dtd">
<svg version="1.0" xmlns="http://www.w3.org/2000/svg"
 width="220.000000pt" height="274.000000pt" viewBox="0 0 220.000000 274.000000"
 preserveAspectRatio="xMidYMid meet">
<metadata>
Created by potrace 1.10, written by Peter Selinger 2001-2011
</metadata>
<g transform="translate(0.000000,274.000000) scale(0.100000,-0.100000)"
fill="#000000" stroke="none">
<path d="M710 2252 c0 -19 115 -281 131 -297 21 -21 0 60 -37 145 -68 156 -94
198 -94 152z"/>
<path d="M1186 2259 c-5 -17 -36 -201 -36 -218 0 -6 4 -11 10 -11 21 0 58 216
40 234 -6 6 -11 4 -14 -5z"/>
<path d="M950 2164 c0 -5 33 -123 46 -164 4 -12 6 -12 14 -1 4 8 7 19 5 25 -2
6 -11 41 -20 79 -11 42 -22 67 -31 67 -8 0 -14 -3 -14 -6z"/>
<path d="M1392 2119 c-9 -17 -34 -56 -54 -87 -44 -67 -50 -97 -13 -62 25 24
105 153 105 171 0 20 -22 7 -38 -22z"/>
<path d="M389 2051 c-32 -33 -37 -58 -13 -68 22 -8 66 27 81 65 13 31 12 32
-13 32 -15 0 -38 -12 -55 -29z"/>
<path d="M1700 2069 c0 -21 41 -78 60 -84 46 -15 55 32 14 70 -28 26 -74 34
-74 14z"/>
<path d="M308 1997 c-25 -37 -29 -62 -14 -82 24 -33 46 -12 46 44 0 57 -11 71
-32 38z"/>
<path d="M1826 1994 c-10 -27 -7 -59 9 -80 15 -18 16 -16 11 26 l-5 45 13 -45
c10 -35 15 -41 21 -27 12 29 -12 97 -35 97 -4 0 -11 -7 -14 -16z"/>
<path d="M378 1959 c-26 -15 -22 -39 5 -39 22 0 57 27 57 43 0 11 -43 8 -62
-4z"/>
<path d="M590 1961 c0 -11 108 -111 120 -111 17 0 11 10 -41 66 -47 49 -79 68
-79 45z"/>
<path d="M1733 1956 c-4 -7 -46 -37 -93 -66 -47 -29 -107 -67 -134 -84 -55
-34 -47 -47 11 -19 42 19 152 84 197 116 16 12 42 20 57 19 35 -3 48 17 24 35
-24 17 -52 17 -62 -1z"/>
<path d="M1458 1916 c-41 -36 -46 -46 -23 -46 16 0 85 57 85 71 0 18 -26 8
-62 -25z"/>
<path d="M225 1886 c-24 -56 -17 -96 16 -96 30 0 43 36 30 81 -16 52 -29 57
-46 15z"/>
<path d="M1901 1893 c-7 -17 -11 -46 -9 -64 2 -29 7 -34 28 -34 22 0 25 5 28
41 2 28 -3 48 -16 64 l-18 23 -13 -30z"/>
<path d="M310 1862 c-25 -20 -20 -42 9 -42 20 0 64 43 54 53 -12 12 -40 7 -63
-11z"/>
<path d="M1790 1872 c0 -20 34 -52 56 -52 34 0 33 37 -2 50 -31 12 -54 13 -54
2z"/>
<path d="M400 1850 c0 -11 270 -143 278 -135 7 6 -18 35 -31 35 -6 0 -18 6
-26 14 -17 14 -197 96 -212 96 -5 0 -9 -5 -9 -10z"/>
<path d="M159 1759 c-17 -54 -3 -94 31 -94 22 0 25 5 28 37 3 37 -20 98 -38
98 -5 0 -15 -18 -21 -41z"/>
<path d="M1966 1778 c-44 -69 -21 -147 32 -105 20 16 13 127 -9 127 -5 0 -15
-10 -23 -22z"/>
<path d="M250 1750 c-22 -22 -17 -50 10 -50 18 0 60 43 60 61 0 17 -50 9 -70
-11z"/>
<path d="M1850 1751 c25 -48 65 -66 77 -36 8 23 -26 55 -59 55 -25 0 -27 -2
-18 -19z"/>
<path d="M117 1663 c-13 -12 -7 -108 8 -126 8 -11 23 -17 37 -15 34 5 35 48 3
103 -25 44 -35 52 -48 38z m37 -80 c9 -25 14 -49 11 -51 -5 -5 -18 27 -29 71
-10 43 1 31 18 -20z"/>
<path d="M760 1650 c0 -15 5 -20 18 -18 9 2 17 10 17 18 0 8 -8 16 -17 18 -13
2 -18 -3 -18 -18z"/>
<path d="M2016 1651 c-33 -37 -52 -121 -27 -121 4 0 13 21 21 47 7 26 15 42
18 35 2 -7 -3 -31 -12 -54 -20 -47 -18 -53 12 -32 24 17 37 69 27 113 -8 36
-15 38 -39 12z"/>
<path d="M220 1642 c-18 -14 -22 -25 -16 -45 3 -15 11 -27 17 -27 14 0 56 47
62 70 7 26 -32 27 -63 2z"/>
<path d="M380 1576 l0 -86 49 0 c53 0 81 17 81 49 0 10 -7 24 -15 31 -11 9
-12 16 -2 31 20 33 -2 54 -62 57 l-51 3 0 -85z m85 34 c0 -9 -11 -16 -27 -18
-23 -3 -28 1 -28 18 0 17 5 21 28 18 16 -2 27 -9 27 -18z m10 -70 c0 -10 -12
-16 -32 -18 -28 -3 -33 0 -33 18 0 18 5 21 33 18 20 -2 32 -8 32 -18z"/>
<path d="M978 1575 l3 -85 48 0 c26 0 52 5 59 12 18 18 15 59 -5 74 -11 8 -13
13 -5 14 15 0 16 42 0 58 -7 7 -32 12 -57 12 l-46 0 3 -85z m82 35 c0 -15 -7
-20 -25 -20 -18 0 -25 5 -25 20 0 15 7 20 25 20 18 0 25 -5 25 -20z m10 -70
c0 -16 -7 -20 -30 -20 -23 0 -30 4 -30 20 0 16 7 20 30 20 23 0 30 -4 30 -20z"/>
<path d="M1885 1638 c17 -58 85 -88 85 -39 0 23 -45 61 -72 61 -15 0 -18 -5
-13 -22z"/>
<path d="M540 1554 c0 -50 3 -64 15 -64 11 0 15 12 15 46 0 37 4 47 19 51 11
3 22 11 25 18 4 10 -6 14 -35 13 l-39 0 0 -64z"/>
<path d="M642 1608 c-20 -20 -13 -27 23 -21 43 7 48 -13 6 -22 -16 -3 -35 -13
-41 -21 -26 -30 16 -67 51 -46 11 7 20 8 24 2 10 -15 35 -12 35 5 0 8 -5 15
-11 15 -7 0 -9 12 -6 33 2 17 0 40 -5 50 -10 20 -58 23 -76 5z m56 -70 c-5
-15 -48 -24 -48 -10 0 14 12 22 33 22 10 0 17 -5 15 -12z"/>
<path d="M760 1555 c0 -55 3 -65 18 -65 15 0 17 8 14 65 -3 48 -7 65 -18 65
-11 0 -14 -16 -14 -65z"/>
<path d="M830 1555 c0 -50 3 -65 14 -65 11 0 16 14 18 48 3 40 6 47 26 50 20
3 22 0 22 -47 0 -39 4 -51 15 -51 13 0 15 11 13 56 -3 66 -23 88 -58 66 -12
-7 -20 -8 -20 -2 0 5 -7 10 -15 10 -12 0 -15 -14 -15 -65z"/>
<path d="M1146 1604 c-21 -20 -21 -78 0 -98 38 -39 98 -9 98 49 0 58 -60 88
-98 49z m67 -28 c11 -27 -4 -57 -27 -54 -36 5 -34 68 3 68 10 0 21 -6 24 -14z"/>
<path d="M1270 1574 c0 -69 11 -83 68 -82 l47 0 0 64 c0 54 -3 64 -17 64 -15
0 -18 -9 -18 -49 0 -32 -5 -51 -14 -54 -23 -9 -34 12 -28 59 4 40 3 44 -17 44
-18 0 -21 -6 -21 -46z"/>
<path d="M1420 1554 c0 -49 3 -64 14 -64 11 0 16 14 18 48 3 39 6 47 23 47 17
0 20 -7 20 -48 0 -38 3 -47 18 -47 14 0 17 9 17 54 0 63 -11 75 -68 74 l-42 0
0 -64z"/>
<path d="M1576 1604 c-9 -8 -16 -31 -16 -49 0 -39 22 -65 55 -65 31 0 62 29
44 41 -8 4 -16 3 -20 -3 -3 -5 -15 -8 -25 -6 -14 2 -19 12 -19 33 0 26 4 30
30 31 48 2 51 4 31 19 -26 19 -61 19 -80 -1z"/>
<path d="M1709 1610 c-22 -13 -31 -53 -19 -84 11 -30 51 -43 86 -27 34 15 21
31 -20 24 -25 -4 -35 -1 -39 11 -5 13 1 16 38 16 38 0 45 3 45 19 0 41 -51 64
-91 41z"/>
<path d="M213 1520 c-25 -15 -33 -27 -33 -49 0 -33 10 -44 33 -35 27 10 62
104 40 104 -5 0 -23 -9 -40 -20z"/>
<path d="M1906 1513 c9 -37 20 -57 39 -73 26 -22 29 -3 5 37 -20 35 -20 36 -1
13 11 -14 21 -28 21 -32 0 -5 5 -8 10 -8 21 0 9 39 -21 64 -41 35 -61 34 -53
-1z"/>
<path d="M82 1471 c4 -62 33 -111 65 -111 18 0 17 5 -11 48 -13 20 -27 48 -31
62 -3 14 9 -1 27 -32 35 -61 48 -71 48 -37 0 37 -43 99 -84 121 -17 9 -18 6
-14 -51z"/>
<path d="M2043 1505 c-34 -28 -68 -99 -56 -120 6 -10 17 2 38 42 16 31 31 51
32 46 2 -6 -8 -32 -22 -58 -30 -53 -27 -65 9 -41 35 22 58 111 38 143 -5 9
-16 5 -39 -12z"/>
<path d="M209 1381 c-43 -43 -36 -91 12 -91 13 0 39 63 39 95 0 33 -15 32 -51
-4z"/>
<path d="M1910 1373 c0 -64 41 -103 70 -68 18 21 -3 66 -40 89 l-30 17 0 -38z"/>
<path d="M74 1324 c8 -60 35 -106 69 -118 38 -14 45 0 15 32 -13 15 -35 43
-47 62 l-23 35 29 -30 c15 -17 38 -44 50 -60 19 -26 22 -28 28 -12 11 27 -38
93 -87 118 l-41 21 7 -48z"/>
<path d="M2055 1351 c-45 -27 -85 -79 -85 -109 l1 -27 22 25 c12 14 34 41 49
60 44 56 32 21 -13 -39 -43 -57 -44 -74 -1 -51 39 22 64 72 60 119 l-3 41 -30
-19z"/>
<path d="M926 1316 c-35 -41 -45 -66 -28 -66 18 0 96 -86 114 -127 10 -23 22
-43 27 -43 4 0 22 20 40 45 31 43 32 47 20 83 -7 20 -19 48 -28 62 -20 32 -83
90 -98 90 -6 0 -28 -20 -47 -44z m99 -32 c44 -48 58 -103 35 -134 l-18 -23
-12 23 c-7 13 -33 45 -58 72 -44 47 -44 48 -28 73 22 34 42 31 81 -11z"/>
<path d="M240 1250 c-45 -45 -45 -110 0 -110 26 0 40 29 40 84 0 51 -10 56
-40 26z"/>
<path d="M1885 1240 c-8 -36 10 -96 32 -104 10 -4 14 -2 10 8 -3 8 -8 32 -11
53 -5 35 -4 34 10 -11 12 -35 18 -45 25 -35 16 25 10 57 -17 88 -32 39 -41 39
-49 1z"/>
<path d="M850 1233 c0 -4 16 -18 34 -30 36 -23 88 -91 100 -130 10 -33 -1 -28
-20 8 -19 38 -90 116 -118 131 -12 6 5 -14 36 -45 32 -32 67 -76 79 -99 19
-36 22 -39 31 -23 8 13 6 27 -6 51 -26 55 -136 166 -136 137z"/>
<path d="M90 1179 c0 -11 7 -35 14 -54 39 -94 136 -119 136 -36 0 26 -59 78
-108 95 -40 15 -42 14 -42 -5z m108 -84 c17 -16 30 -30 27 -33 -7 -7 -84 58
-97 81 l-11 22 24 -21 c13 -12 39 -34 57 -49z"/>
<path d="M815 1184 c54 -40 100 -93 121 -139 13 -27 24 -43 24 -35 0 45 -119
191 -154 190 -6 0 -2 -7 9 -16z"/>
<path d="M2012 1174 c-56 -28 -92 -65 -92 -95 0 -28 10 -24 67 33 29 28 55 49
58 46 3 -3 -22 -31 -55 -62 l-61 -56 34 0 c41 0 80 37 102 99 25 72 23 73 -53
35z"/>
<path d="M833 1120 c25 -23 60 -65 77 -95 37 -65 50 -73 19 -13 -22 44 -115
148 -132 148 -5 0 11 -18 36 -40z"/>
<path d="M1168 1143 c-8 -10 -30 -43 -48 -73 -18 -30 -40 -60 -49 -67 -9 -6
-13 -15 -9 -18 4 -4 -6 -33 -22 -64 -24 -45 -60 -134 -60 -146 0 -7 36 1 41 9
8 10 66 -8 132 -41 27 -13 51 -22 54 -19 7 6 -108 59 -150 70 -20 5 -27 12
-25 24 6 26 54 18 144 -23 42 -19 79 -33 82 -31 5 6 -94 51 -160 73 -52 17
-54 20 -37 56 l11 25 58 -18 c32 -10 83 -29 114 -43 31 -14 56 -22 56 -18 0
12 -105 56 -167 71 -29 6 -53 16 -53 21 0 22 75 142 94 149 11 5 15 9 8 9 -11
1 -9 10 7 36 22 38 7 51 -21 18z"/>
<path d="M287 1106 c-24 -37 -30 -72 -16 -98 12 -22 14 -20 26 32 l12 55 -4
-57 c-2 -32 -2 -58 0 -58 2 0 11 7 19 16 19 18 21 72 4 109 -14 31 -21 31 -41
1z"/>
<path d="M823 1068 c36 -35 69 -76 72 -91 4 -15 11 -27 16 -27 14 0 -26 74
-60 112 -16 18 -44 42 -62 52 -23 14 -14 1 34 -46z"/>
<path d="M1831 1086 c-11 -45 -4 -87 18 -101 7 -4 12 12 13 47 l2 53 3 -47 c6
-69 33 -59 33 11 0 27 -33 81 -50 81 -4 0 -13 -20 -19 -44z"/>
<path d="M1225 1103 c38 -3 156 -27 200 -40 11 -3 17 -2 13 2 -13 13 -162 44
-208 43 l-45 -1 40 -4z"/>
<path d="M776 1058 c41 -36 80 -94 90 -132 3 -14 10 -26 15 -26 23 0 -47 127
-92 164 -44 38 -57 32 -13 -6z"/>
<path d="M1201 1076 c2 -2 29 -6 59 -9 36 -4 46 -3 30 3 -25 8 -97 13 -89 6z"/>
<path d="M1205 1053 c11 -3 60 -16 109 -28 49 -13 85 -20 80 -16 -11 10 -174
51 -194 50 -8 -1 -6 -4 5 -6z"/>
<path d="M1320 1056 c0 -4 95 -36 107 -35 4 0 -12 9 -37 19 -43 18 -70 24 -70
16z"/>
<path d="M1505 993 c-26 -50 -235 -375 -254 -396 -4 -4 -33 7 -66 24 -79 44
-199 79 -260 78 l-50 -2 62 -8 c66 -8 184 -42 220 -62 l23 -12 -23 -14 c-20
-13 -21 -13 -8 3 13 15 11 16 -18 11 -21 -4 -30 -2 -26 5 7 11 -42 33 -55 25
-5 -3 -10 0 -12 6 -2 7 -11 10 -18 7 -10 -3 -4 -10 18 -22 18 -9 37 -14 42
-11 6 3 10 2 10 -4 0 -12 32 -31 61 -36 11 -2 36 -18 55 -35 39 -34 56 -40 29
-10 -10 11 -14 20 -9 20 5 1 -2 9 -15 20 -12 11 -28 17 -35 13 -8 -4 -8 -3 1
7 9 10 17 9 42 -6 17 -10 32 -16 34 -13 2 2 56 83 119 179 123 186 171 267
166 281 -2 5 -16 -17 -33 -48z"/>
<path d="M677 967 c57 -59 141 -178 156 -221 4 -10 -18 5 -49 33 -56 51 -180
128 -191 118 -3 -3 17 -17 44 -31 56 -28 138 -87 168 -121 19 -21 55 -40 55
-29 0 13 -56 115 -89 159 -45 63 -131 155 -144 155 -6 0 17 -28 50 -63z"/>
<path d="M1200 1015 c36 -7 85 -21 109 -29 50 -18 59 -20 46 -7 -13 13 -163
51 -194 50 -14 0 3 -7 39 -14z"/>
<path d="M140 1008 c0 -28 57 -103 92 -122 39 -21 82 -16 92 10 17 44 -55 105
-141 119 -33 5 -43 4 -43 -7z m115 -63 c39 -25 63 -45 54 -45 -15 0 -139 76
-139 86 0 10 20 1 85 -41z"/>
<path d="M1478 858 c-183 -241 -222 -298 -211 -309 6 -6 22 8 44 40 19 28 74
102 122 165 49 63 90 122 91 131 1 9 22 41 45 71 24 31 41 57 38 60 -3 3 -61
-68 -129 -158z m36 20 c-15 -26 -187 -248 -192 -248 -5 0 6 14 122 168 63 83
90 113 70 80z"/>
<path d="M1948 1008 c-20 -5 -53 -24 -74 -42 -32 -27 -36 -36 -30 -59 12 -48
59 -48 116 -1 26 22 70 90 70 109 0 8 -40 4 -82 -7z m28 -37 c-19 -21 -115
-75 -122 -68 -4 4 123 85 135 87 2 0 -3 -8 -13 -19z"/>
<path d="M366 966 c-20 -43 -20 -75 0 -104 16 -24 48 -29 60 -10 13 21 5 79
-17 114 -11 19 -22 34 -24 34 -1 0 -10 -15 -19 -34z m34 -73 c0 -57 -5 -53
-13 10 -4 31 -3 46 3 42 6 -3 10 -27 10 -52z"/>
<path d="M1755 966 c-23 -35 -30 -93 -14 -113 12 -14 15 -10 26 43 l12 59 -4
-57 c-4 -59 1 -68 23 -46 15 15 16 92 2 119 -14 25 -26 24 -45 -5z"/>
<path d="M1008 918 c-24 -35 -61 -90 -83 -123 -21 -33 -43 -66 -49 -74 -8 -10
-8 -13 1 -10 6 2 47 58 90 124 95 144 95 145 89 145 -2 0 -24 -28 -48 -62z"/>
<path d="M1120 977 c0 -3 26 -11 58 -17 31 -7 84 -25 117 -40 62 -30 82 -33
43 -8 -44 28 -218 80 -218 65z"/>
<path d="M1155 934 c28 -8 80 -28 118 -44 37 -15 65 -25 62 -20 -9 14 -148 68
-190 74 -37 5 -37 4 10 -10z"/>
<path d="M1557 895 c-37 -53 -57 -115 -37 -115 13 0 119 153 114 162 -13 21
-43 3 -77 -47z"/>
<path d="M1112 865 c26 -7 77 -27 114 -44 37 -17 69 -29 71 -27 12 12 -179 87
-215 85 -9 0 4 -7 30 -14z"/>
<path d="M480 844 c-29 -74 32 -168 78 -122 18 18 15 28 -8 28 -14 0 -18 -5
-13 -17 3 -11 -2 -7 -13 7 -10 14 -19 41 -20 60 -1 19 1 27 3 18 5 -20 18 -23
29 -7 3 6 -5 23 -19 37 l-26 26 -11 -30z"/>
<path d="M1630 828 c-19 -26 -30 -53 -30 -74 0 -54 16 -47 40 17 12 33 24 59
26 56 3 -2 -4 -29 -16 -58 -11 -30 -20 -55 -20 -56 0 -10 23 0 40 17 28 28 27
140 -1 140 -5 0 -22 -19 -39 -42z"/>
<path d="M241 842 c-18 -13 10 -55 63 -93 43 -32 114 -40 134 -16 9 10 1 16
-36 26 -58 15 -137 49 -130 56 3 3 42 -8 88 -25 46 -17 85 -28 87 -26 11 10
-19 45 -52 60 -43 21 -134 31 -154 18z"/>
<path d="M1796 834 c-45 -16 -76 -41 -76 -61 0 -16 -9 -18 84 17 44 16 82 28
84 25 7 -7 -73 -44 -122 -56 -38 -9 -44 -14 -35 -25 15 -18 73 -18 108 0 15 8
45 34 65 57 30 32 35 43 25 50 -21 13 -89 9 -133 -7z"/>
<path d="M620 820 c-13 -8 -12 -10 5 -11 11 -1 25 -3 30 -4 6 -2 17 -3 26 -4
9 0 28 -11 42 -23 15 -13 41 -34 59 -48 l33 -25 -22 31 c-20 28 -92 74 -138
88 -11 3 -27 1 -35 -4z"/>
<path d="M566 791 c5 -5 34 -11 64 -14 l55 -5 -40 13 c-47 16 -93 19 -79 6z"/>
<path d="M1490 729 c-15 -17 -36 -47 -47 -66 -16 -30 -16 -35 -3 -43 49 -31
91 6 98 85 5 65 -5 70 -48 24z m30 -7 c0 -14 -61 -105 -66 -99 -5 4 56 106 64
107 1 0 2 -4 2 -8z"/>
<path d="M620 706 c0 -32 41 -90 67 -94 21 -3 20 1 -14 57 -38 65 -53 75 -53
37z"/>
<path d="M660 714 c0 -3 14 -26 32 -50 20 -28 35 -41 41 -35 17 17 -12 69 -44
80 -16 5 -29 8 -29 5z"/>
<path d="M397 688 c-21 -5 -36 -15 -34 -21 2 -7 25 -27 51 -46 60 -43 144 -55
176 -26 32 29 24 35 -42 36 -35 0 -81 7 -103 14 l-40 14 53 -4 c28 -3 76 -8
105 -11 l52 -6 -26 27 c-22 23 -37 28 -90 31 -35 2 -81 -2 -102 -8z"/>
<path d="M760 685 c7 -8 18 -15 25 -15 6 0 17 -17 23 -38 14 -46 44 -80 78
-88 44 -11 39 5 -19 58 -39 34 -57 59 -57 75 0 19 -5 23 -31 23 -27 0 -30 -2
-19 -15z"/>
<path d="M1614 693 c-23 -4 -61 -40 -52 -48 3 -3 45 -1 93 5 48 6 90 9 92 6
10 -9 -73 -26 -129 -26 -44 0 -58 -3 -58 -15 0 -34 83 -47 143 -22 36 16 97
64 97 77 0 22 -119 36 -186 23z"/>
<path d="M946 635 c8 -21 182 -107 187 -92 2 7 25 -4 58 -28 53 -38 53 -38 24
-6 -16 17 -54 44 -85 58 -30 15 -57 30 -60 34 -6 9 -66 34 -102 42 -22 6 -26
4 -22 -8z"/>
<path d="M900 591 c27 -22 36 -26 38 -14 7 28 -7 43 -40 43 l-32 0 34 -29z"/>
<path d="M640 581 c-35 -11 -88 -39 -95 -51 -4 -6 17 -21 47 -35 69 -32 154
-34 192 -4 30 24 36 56 9 44 -10 -5 -61 -9 -113 -11 -83 -3 -88 -2 -40 6 30 5
82 12 115 15 l60 7 -24 19 c-24 20 -101 25 -151 10z"/>
<path d="M1384 573 c-20 -20 -20 -20 126 -42 l65 -10 -90 3 c-49 2 -98 7 -107
11 -27 11 -23 -30 4 -49 35 -25 134 -21 188 7 24 12 45 27 47 33 2 6 -23 23
-55 37 -72 32 -151 36 -178 10z"/>
<path d="M1296 530 c-20 -27 -32 -50 -27 -50 10 0 39 38 60 78 20 37 5 25 -33
-28z"/>
<path d="M895 516 c-55 -26 -134 -90 -123 -101 3 -3 35 -11 70 -17 50 -9 75
-9 111 2 84 23 124 90 75 124 -32 22 -75 20 -133 -8z m128 -21 c-34 -24 -154
-66 -177 -63 -13 2 6 12 49 27 39 13 81 29 95 37 36 19 60 18 33 -1z"/>
<path d="M1124 506 c-19 -49 33 -100 113 -112 44 -6 153 10 153 24 0 3 -14 21
-32 39 -29 30 -32 31 -44 15 -18 -23 -17 -30 4 -35 13 -3 13 -4 -3 -3 -11 0
-26 -3 -33 -8 -9 -5 -24 -1 -41 12 -15 10 -46 29 -69 41 -40 20 -59 40 -26 27
8 -3 12 -2 9 4 -9 14 -25 12 -31 -4z"/>
</g>
</svg>
